
o Dirt
v 1.000000 -1.000000 -1.000000
v 1.000000 -1.000000 1.000000
v -1.000000 -1.000000 1.000000
v -1.000000 -1.000000 -1.000000
v 1.000000 1.000000 -0.999999
v 0.999999 1.000000 1.000001
v -1.000000 1.000000 1.000000
v -1.000000 1.000000 -1.000000
vt 0.250000 -0.000000
vt 0.000000 0.250000
vt 0.250000 0.250000
vt 0.500000 0.250000
vt 0.750000 -0.000000
vt 0.750000 0.250000
vt 0.250000 0.250000
vt 0.500000 0.000000
vt 0.250000 -0.000000
vt 0.500000 0.250000
vt 0.250000 0.000000
vt 0.500000 -0.000000
vt 0.500000 0.000000
vt 0.250000 0.250000
vt 0.500000 0.250000
vt 0.000000 -0.000000
vt 0.500000 -0.000000
vt 0.250000 0.250000
vt 0.250000 0.000000
vn 0.0000 -1.0000 0.0000
vn 0.0000 1.0000 0.0000
vn 1.0000 -0.0000 0.0000
vn 0.0000 -0.0000 1.0000
vn -1.0000 -0.0000 -0.0000
vn 0.0000 0.0000 -1.0000
s off
f 2/1/1 4/2/1 1/3/1
f 8/4/2 6/5/2 5/6/2
f 5/7/3 2/8/3 1/9/3
f 6/10/4 3/11/4 2/8/4
f 3/11/5 8/4/5 4/12/5
f 1/13/6 8/14/6 5/15/6
f 2/1/1 3/16/1 4/2/1
f 8/4/2 7/17/2 6/5/2
f 5/7/3 6/10/3 2/8/3
f 6/10/4 7/18/4 3/11/4
f 3/11/5 7/18/5 8/4/5
f 1/13/6 4/19/6 8/14/6
