
o Icosphere
v 0.000000 -1.000000 0.000000
v 0.723600 -0.447215 0.525720
v -0.276385 -0.447215 0.850640
v -0.894425 -0.447215 0.000000
v -0.276385 -0.447215 -0.850640
v 0.723600 -0.447215 -0.525720
v 0.276385 0.447215 0.850640
v -0.723600 0.447215 0.525720
v -0.723600 0.447215 -0.525720
v 0.276385 0.447215 -0.850640
v 0.894425 0.447215 0.000000
v 0.000000 1.000000 0.000000
vt 0.875000 0.250000
vt 1.000000 0.000000
vt 0.750000 0.000000
vt 0.750000 -0.000000
vt 1.000000 0.000000
vt 0.875000 0.250000
vt 0.750000 -0.000000
vt 0.875000 0.000000
vt 0.750000 0.250000
vt 1.000000 0.250000
vt 1.000000 -0.000000
vt 0.875000 0.250000
vt 0.875000 0.250000
vt 1.000000 -0.000000
vt 0.875000 0.250000
vt 0.750000 -0.000000
vt 1.000000 -0.000000
vt 0.875000 0.250000
vt 0.875000 0.250000
vt 0.875000 0.000000
vt 1.000000 0.250000
vt 0.750000 0.250000
vt 0.875000 0.000000
vt 1.000000 0.250000
vt 0.750000 0.250000
vt 0.875000 0.000000
vt 1.000000 0.250000
vt 0.750000 0.250000
vt 0.875000 0.000000
vt 1.000000 0.250000
vt 0.750000 0.250000
vt 0.875000 0.000000
vt 1.000000 0.250000
vt 0.750000 0.250000
vt 1.000000 0.000000
vt 0.750000 0.000000
vt 0.875000 0.000000
vt 0.750000 0.250000
vt 1.000000 0.000000
vt 0.750000 -0.000000
vt 0.875000 0.250000
vt 0.875000 0.000000
vn 0.1876 -0.7947 0.5774
vn 0.6071 -0.7947 0.0000
vn -0.4911 -0.7947 0.3568
vn -0.4911 -0.7947 -0.3568
vn 0.1876 -0.7947 -0.5774
vn 0.9822 -0.1876 0.0000
vn 0.3035 -0.1876 0.9342
vn -0.7946 -0.1876 0.5774
vn -0.7946 -0.1876 -0.5774
vn 0.3035 -0.1876 -0.9342
vn 0.7946 0.1876 0.5774
vn -0.3035 0.1876 0.9342
vn -0.9822 0.1876 0.0000
vn -0.3035 0.1876 -0.9342
vn 0.7946 0.1876 -0.5774
vn 0.4911 0.7947 0.3568
vn -0.1876 0.7947 0.5774
vn -0.6071 0.7947 0.0000
vn -0.1876 0.7947 -0.5774
vn 0.4911 0.7947 -0.3568
s off
f 1/1/1 2/2/1 3/3/1
f 2/2/2 1/1/2 6/4/2
f 1/5/3 3/6/3 4/7/3
f 1/8/4 4/9/4 5/10/4
f 1/1/5 5/11/5 6/4/5
f 2/2/6 6/4/6 11/12/6
f 3/3/7 2/2/7 7/13/7
f 4/7/8 3/14/8 8/15/8
f 5/16/9 4/17/9 9/18/9
f 6/4/10 5/11/10 10/19/10
f 2/20/11 11/21/11 7/22/11
f 3/23/12 7/24/12 8/25/12
f 4/26/13 8/27/13 9/28/13
f 5/29/14 9/30/14 10/31/14
f 6/32/15 10/33/15 11/34/15
f 7/13/16 11/35/16 12/36/16
f 8/37/17 7/24/17 12/38/17
f 9/30/18 8/37/18 12/38/18
f 10/39/19 9/40/19 12/41/19
f 11/21/20 10/31/20 12/42/20
