
# Cube!
o Cube
v 1.000000 -1.000000 -1.000000
v 1.000000 -1.000000 1.000000
v -1.000000 -1.000000 1.000000
v -1.000000 -1.000000 -1.000000
v 1.000000 1.000000 -1.0
v 1.0 1.000000 1.0
v -1.000000 1.000000 1.000000
v -1.000000 1.000000 -1.000000
vn 0.0000 -1.0000 0.0000
vn 0.0000 1.0000 0.0000
vn 1.0000 0.0000 0.0000
vn -0.0000 -0.0000 1.0000
vn -1.0000 -0.0000 -0.0000
vn 0.0000 0.0000 -1.0000
usemtl None
s off
g front cube
f -8//1 -7//1 -6//1
f -7//1 -6//1 -5//1
g back cube
f -4//2 -1//2 -2//2
f -1//2 -2//2 -3//2
g right cube
s 1
f -8//3 5//3 6//3 
f 5//3 6//3 -7//3
usemtl Nano
g top cube
f 2//-3 6//-3 7//-3
f 6//-3 7//-3 3//-3
usemtl None
s off
g left cube
f 3//-2 7//-2 8//-2
f 7//-2 8//-2 4//-2
g bottom cube
s 2
f 5//-1 1//-1 4//-1
f 1//-1 4//-1 8//-1
p 1 2 3
p -3 -2 -1
l 1 2 3
l -3 -2 -1
